<?xml version="1.0" encoding="UTF-8" standalone="no"?>
<!DOCTYPE svg PUBLIC "-//W3C//DTD SVG 1.1//EN"
 "http://www.w3.org/Graphics/SVG/1.1/DTD/svg11.dtd">
<!-- Generated by graphviz version 13.1.2 (20250808.2320)
 -->
<!-- Title: G Pages: 1 -->
<svg width="368pt" height="476pt"
 viewBox="0.00 0.00 368.00 476.00" xmlns="http://www.w3.org/2000/svg" xmlns:xlink="http://www.w3.org/1999/xlink">
<g id="graph0" class="graph" transform="scale(1 1) rotate(0) translate(4 472)">
<title>G</title><style>.edge>path:hover{stroke-width:8}</style>
<polygon fill="white" stroke="none" points="-4,4 -4,-472 363.77,-472 363.77,4 -4,4"/>
<!-- django -->
<g id="node1" class="node">
<title>django</title><style>.edge>path:hover{stroke-width:8}</style>
<polygon fill="blue" stroke="black" points="187.97,-468 184.97,-472 163.97,-472 160.97,-468 133.97,-468 133.97,-432 187.97,-432 187.97,-468"/>
<text xml:space="preserve" text-anchor="middle" x="160.97" y="-446.12" font-family="Helvetica,sans-Serif" font-size="10.00" fill="white">django</text>
</g>
<!-- tasks_admin -->
<g id="node2" class="node">
<title>tasks_admin</title><style>.edge>path:hover{stroke-width:8}</style>
<ellipse fill="#46a4a4" stroke="black" cx="40.97" cy="-234" rx="40.97" ry="18"/>
<text xml:space="preserve" text-anchor="middle" x="40.97" y="-230.12" font-family="Helvetica,sans-Serif" font-size="10.00" fill="#000000">tasks.admin</text>
</g>
<!-- django&#45;&gt;tasks_admin -->
<g id="edge1" class="edge">
<title>django&#45;&gt;tasks_admin</title><style>.edge>path:hover{stroke-width:8}</style>
<path fill="none" stroke="black" d="M143.45,-431.94C133.93,-422.04 122.41,-409 113.97,-396 85.58,-352.24 62.71,-295.62 50.55,-262.51"/>
<polygon fill="blue" stroke="black" points="53.9,-261.48 47.21,-253.26 47.31,-263.85 53.9,-261.48"/>
</g>
<!-- tasks_apps -->
<g id="node3" class="node">
<title>tasks_apps</title><style>.edge>path:hover{stroke-width:8}</style>
<ellipse fill="#49acac" stroke="black" cx="160.97" cy="-378" rx="37.87" ry="18"/>
<text xml:space="preserve" text-anchor="middle" x="160.97" y="-374.12" font-family="Helvetica,sans-Serif" font-size="10.00" fill="#000000">tasks.apps</text>
</g>
<!-- django&#45;&gt;tasks_apps -->
<g id="edge2" class="edge">
<title>django&#45;&gt;tasks_apps</title><style>.edge>path:hover{stroke-width:8}</style>
<path fill="none" stroke="black" d="M160.97,-431.7C160.97,-424.41 160.97,-415.73 160.97,-407.54"/>
<polygon fill="blue" stroke="black" points="164.48,-407.62 160.97,-397.62 157.48,-407.62 164.48,-407.62"/>
</g>
<!-- tasks_forms -->
<g id="node4" class="node">
<title>tasks_forms</title><style>.edge>path:hover{stroke-width:8}</style>
<ellipse fill="#35a1a1" stroke="black" cx="215.97" cy="-162" rx="40.09" ry="18"/>
<text xml:space="preserve" text-anchor="middle" x="215.97" y="-158.12" font-family="Helvetica,sans-Serif" font-size="10.00" fill="#000000">tasks.forms</text>
</g>
<!-- django&#45;&gt;tasks_forms -->
<g id="edge3" class="edge">
<title>django&#45;&gt;tasks_forms</title><style>.edge>path:hover{stroke-width:8}</style>
<path fill="none" stroke="black" d="M215.97,-305C192.8,-271.33 199.65,-221.7 207.35,-190.91"/>
<polygon fill="blue" stroke="black" points="210.64,-192.14 209.88,-181.57 203.89,-190.31 210.64,-192.14"/>
</g>
<!-- tasks_models -->
<g id="node5" class="node">
<title>tasks_models</title><style>.edge>path:hover{stroke-width:8}</style>
<ellipse fill="#2db4b4" stroke="black" cx="143.97" cy="-234" rx="44.08" ry="18"/>
<text xml:space="preserve" text-anchor="middle" x="143.97" y="-230.12" font-family="Helvetica,sans-Serif" font-size="10.00" fill="#000000">tasks.models</text>
</g>
<!-- django&#45;&gt;tasks_models -->
<g id="edge4" class="edge">
<title>django&#45;&gt;tasks_models</title><style>.edge>path:hover{stroke-width:8}</style>
<path fill="none" stroke="black" d="M281.97,-377C303.11,-339.83 240.22,-342.22 215.97,-307"/>
<path fill="none" stroke="black" d="M215.97,-305C203.86,-287.4 186.84,-270.61 172.39,-257.88"/>
<polygon fill="blue" stroke="black" points="174.82,-255.35 164.94,-251.5 170.26,-260.66 174.82,-255.35"/>
<path fill="none" stroke="black" d="M188.47,-441.95C217.64,-432.83 262.18,-413.81 281.97,-379"/>
</g>
<!-- tasks_tests -->
<g id="node6" class="node">
<title>tasks_tests</title><style>.edge>path:hover{stroke-width:8}</style>
<ellipse fill="#49acac" stroke="black" cx="281.97" cy="-306" rx="38.31" ry="18"/>
<text xml:space="preserve" text-anchor="middle" x="281.97" y="-302.12" font-family="Helvetica,sans-Serif" font-size="10.00" fill="#000000">tasks.tests</text>
</g>
<!-- django&#45;&gt;tasks_tests -->
<g id="edge5" class="edge">
<title>django&#45;&gt;tasks_tests</title><style>.edge>path:hover{stroke-width:8}</style>
<path fill="none" stroke="black" d="M281.97,-377C289.04,-364.58 289.61,-348.81 288.17,-335.38"/>
<polygon fill="blue" stroke="black" points="291.68,-335.18 286.72,-325.82 284.76,-336.23 291.68,-335.18"/>
</g>
<!-- tasks_urls -->
<g id="node7" class="node">
<title>tasks_urls</title><style>.edge>path:hover{stroke-width:8}</style>
<ellipse fill="#439d9d" stroke="black" cx="281.97" cy="-18" rx="34.76" ry="18"/>
<text xml:space="preserve" text-anchor="middle" x="281.97" y="-14.12" font-family="Helvetica,sans-Serif" font-size="10.00" fill="#000000">tasks.urls</text>
</g>
<!-- django&#45;&gt;tasks_urls -->
<g id="edge6" class="edge">
<title>django&#45;&gt;tasks_urls</title><style>.edge>path:hover{stroke-width:8}</style>
<path fill="none" stroke="black" d="M347.97,-161C332.02,-120.08 309.92,-74.25 295.78,-46.01"/>
<polygon fill="blue" stroke="black" points="298.92,-44.45 291.29,-37.1 292.67,-47.6 298.92,-44.45"/>
</g>
<!-- tasks_views -->
<g id="node8" class="node">
<title>tasks_views</title><style>.edge>path:hover{stroke-width:8}</style>
<ellipse fill="#2e8a8a" stroke="black" cx="247.97" cy="-90" rx="40.53" ry="18"/>
<text xml:space="preserve" text-anchor="middle" x="247.97" y="-86.12" font-family="Helvetica,sans-Serif" font-size="10.00" fill="#ffffff">tasks.views</text>
</g>
<!-- django&#45;&gt;tasks_views -->
<g id="edge7" class="edge">
<title>django&#45;&gt;tasks_views</title><style>.edge>path:hover{stroke-width:8}</style>
<path fill="none" stroke="black" d="M347.97,-161C339.71,-134.61 313.88,-116.93 290.55,-105.94"/>
<polygon fill="blue" stroke="black" points="292.02,-102.77 281.46,-101.97 289.21,-109.18 292.02,-102.77"/>
<path fill="none" stroke="black" d="M281.97,-377C297.54,-349.63 316.1,-352.73 328.97,-324 358.45,-258.25 369.51,-231.76 347.97,-163"/>
</g>
<!-- tasks_forms&#45;&gt;tasks_views -->
<g id="edge8" class="edge">
<title>tasks_forms&#45;&gt;tasks_views</title><style>.edge>path:hover{stroke-width:8}</style>
<path fill="none" stroke="black" d="M223.72,-144.05C227.3,-136.23 231.63,-126.75 235.64,-117.98"/>
<polygon fill="#35a1a1" stroke="black" points="238.7,-119.72 239.67,-109.17 232.33,-116.81 238.7,-119.72"/>
</g>
<!-- tasks_models&#45;&gt;tasks_forms -->
<g id="edge9" class="edge">
<title>tasks_models&#45;&gt;tasks_forms</title><style>.edge>path:hover{stroke-width:8}</style>
<path fill="none" stroke="black" d="M160.31,-217.12C169.52,-208.17 181.2,-196.81 191.48,-186.81"/>
<polygon fill="#2db4b4" stroke="black" points="193.89,-189.36 198.62,-179.88 189.01,-184.34 193.89,-189.36"/>
</g>
<!-- tasks_models&#45;&gt;tasks_views -->
<g id="edge10" class="edge">
<title>tasks_models&#45;&gt;tasks_views</title><style>.edge>path:hover{stroke-width:8}</style>
<path fill="none" stroke="black" d="M144.78,-215.72C146.45,-196.56 151.54,-165.53 166.97,-144 177.74,-128.99 194.19,-117.1 209.47,-108.41"/>
<polygon fill="#2db4b4" stroke="black" points="210.76,-111.69 217.93,-103.88 207.46,-105.52 210.76,-111.69"/>
</g>
<!-- tasks_views&#45;&gt;tasks_urls -->
<g id="edge11" class="edge">
<title>tasks_views&#45;&gt;tasks_urls</title><style>.edge>path:hover{stroke-width:8}</style>
<path fill="none" stroke="black" d="M256.21,-72.05C260.01,-64.23 264.61,-54.75 268.87,-45.98"/>
<polygon fill="#2e8a8a" stroke="black" points="271.94,-47.67 273.16,-37.15 265.64,-44.62 271.94,-47.67"/>
</g>
</g>
</svg>
